<svg width="145" height="45" viewBox="0 0 145 45" fill="none" xmlns="http://www.w3.org/2000/svg">
<circle cx="22.5" cy="22.5" r="22.5" fill="#33A844"/>
<path d="M63.1306 29.7197H71.5674V34.5H57.2114V12.5914H63.1306V29.7197ZM76.9921 15.1389C78.8203 13.2108 81.4727 12.2468 84.9493 12.2468C88.4359 12.2468 91.0783 13.2008 92.8766 15.109C94.6748 17.0171 95.5739 19.8194 95.5739 23.5157C95.5739 27.2021 94.6698 30.0044 92.8616 31.9225C91.0534 33.8406 88.4159 34.7997 84.9493 34.7997C81.4927 34.7997 78.8453 33.8356 77.0071 31.9075C75.1789 29.9794 74.2648 27.1871 74.2648 23.5307C74.2648 19.8643 75.1739 17.067 76.9921 15.1389ZM84.9493 17.102C81.9822 17.102 80.4987 19.2299 80.4987 23.4858C80.4987 27.7416 81.9722 29.8695 84.9194 29.8695C86.4179 29.8695 87.5268 29.355 88.2461 28.326C88.9754 27.297 89.34 25.6936 89.34 23.5157C89.34 21.3379 88.9754 19.7244 88.2461 18.6755C87.5168 17.6265 86.4179 17.102 84.9493 17.102ZM117.782 21.6725V33.481C115.235 34.3601 112.412 34.7997 109.316 34.7997C105.929 34.7997 103.316 33.8207 101.478 31.8626C99.64 29.9045 98.7209 27.1322 98.7209 23.5457C98.7209 19.9592 99.7299 17.1869 101.748 15.2288C103.776 13.2608 106.603 12.2767 110.23 12.2767C112.867 12.2767 115.235 12.7363 117.333 13.6554L115.459 18.3008C113.891 17.5216 112.198 17.132 110.379 17.132C108.561 17.132 107.183 17.6964 106.244 18.8253C105.304 19.9442 104.835 21.5377 104.835 23.6056C104.835 25.6736 105.259 27.2471 106.109 28.326C106.968 29.395 108.202 29.9295 109.81 29.9295C110.669 29.9295 111.478 29.8446 112.238 29.6747V26.2431H108.326V21.6725H117.782ZM124.166 15.1389C125.994 13.2108 128.647 12.2468 132.123 12.2468C135.61 12.2468 138.252 13.2008 140.05 15.109C141.849 17.0171 142.748 19.8194 142.748 23.5157C142.748 27.2021 141.844 30.0044 140.035 31.9225C138.227 33.8406 135.59 34.7997 132.123 34.7997C128.667 34.7997 126.019 33.8356 124.181 31.9075C122.353 29.9794 121.439 27.1871 121.439 23.5307C121.439 19.8643 122.348 17.067 124.166 15.1389ZM132.123 17.102C129.156 17.102 127.673 19.2299 127.673 23.4858C127.673 27.7416 129.146 29.8695 132.093 29.8695C133.592 29.8695 134.701 29.355 135.42 28.326C136.149 27.297 136.514 25.6936 136.514 23.5157C136.514 21.3379 136.149 19.7244 135.42 18.6755C134.691 17.6265 133.592 17.102 132.123 17.102Z" fill="white"/>
</svg>
