<svg width="145" height="46" viewBox="0 0 145 46" fill="none" xmlns="http://www.w3.org/2000/svg">
<circle cx="22.5" cy="23" r="22.5" fill="#33A844"/>
<path d="M63.1306 30.2197H71.5674V35H57.2114V13.0914H63.1306V30.2197ZM76.9921 15.6389C78.8203 13.7108 81.4727 12.7468 84.9493 12.7468C88.4359 12.7468 91.0783 13.7008 92.8766 15.609C94.6748 17.5171 95.5739 20.3194 95.5739 24.0157C95.5739 27.7021 94.6698 30.5044 92.8616 32.4225C91.0534 34.3406 88.4159 35.2997 84.9493 35.2997C81.4927 35.2997 78.8453 34.3356 77.0071 32.4075C75.1789 30.4794 74.2648 27.6871 74.2648 24.0307C74.2648 20.3643 75.1739 17.567 76.9921 15.6389ZM84.9493 17.602C81.9822 17.602 80.4987 19.7299 80.4987 23.9858C80.4987 28.2416 81.9722 30.3695 84.9194 30.3695C86.4179 30.3695 87.5268 29.855 88.2461 28.826C88.9754 27.797 89.34 26.1936 89.34 24.0157C89.34 21.8379 88.9754 20.2244 88.2461 19.1755C87.5168 18.1265 86.4179 17.602 84.9493 17.602ZM117.782 22.1725V33.981C115.235 34.8601 112.412 35.2997 109.316 35.2997C105.929 35.2997 103.316 34.3207 101.478 32.3626C99.64 30.4045 98.7209 27.6322 98.7209 24.0457C98.7209 20.4592 99.7299 17.6869 101.748 15.7288C103.776 13.7608 106.603 12.7767 110.23 12.7767C112.867 12.7767 115.235 13.2363 117.333 14.1554L115.459 18.8008C113.891 18.0216 112.198 17.632 110.379 17.632C108.561 17.632 107.183 18.1964 106.244 19.3253C105.304 20.4442 104.835 22.0377 104.835 24.1056C104.835 26.1736 105.259 27.7471 106.109 28.826C106.968 29.895 108.202 30.4295 109.81 30.4295C110.669 30.4295 111.478 30.3446 112.238 30.1747V26.7431H108.326V22.1725H117.782ZM124.166 15.6389C125.994 13.7108 128.647 12.7468 132.123 12.7468C135.61 12.7468 138.252 13.7008 140.05 15.609C141.849 17.5171 142.748 20.3194 142.748 24.0157C142.748 27.7021 141.844 30.5044 140.035 32.4225C138.227 34.3406 135.59 35.2997 132.123 35.2997C128.667 35.2997 126.019 34.3356 124.181 32.4075C122.353 30.4794 121.439 27.6871 121.439 24.0307C121.439 20.3643 122.348 17.567 124.166 15.6389ZM132.123 17.602C129.156 17.602 127.673 19.7299 127.673 23.9858C127.673 28.2416 129.146 30.3695 132.093 30.3695C133.592 30.3695 134.701 29.855 135.42 28.826C136.149 27.797 136.514 26.1936 136.514 24.0157C136.514 21.8379 136.149 20.2244 135.42 19.1755C134.691 18.1265 133.592 17.602 132.123 17.602Z" fill="#46368B"/>
</svg>
