<svg width="40" height="40" viewBox="0 0 40 40" fill="none" xmlns="http://www.w3.org/2000/svg">
<path d="M6.66669 25V11.6667C6.66669 8.52397 6.66669 6.95262 7.643 5.97632C8.6193 5 10.1907 5 13.3334 5H18.3334M33.3334 25V24.1667" stroke="#65CB7B" stroke-width="2.5" stroke-linecap="round" stroke-linejoin="round"/>
<path d="M30 3.33331C33.1426 3.33331 34.714 3.33331 35.6903 4.30963C36.6666 5.28593 36.6666 6.85728 36.6666 9.99998V13.3333C36.6666 16.476 36.6666 18.0473 35.6903 19.0236C34.714 20 33.1426 20 30 20C26.8573 20 25.286 20 24.3096 19.0236C23.3333 18.0473 23.3333 16.476 23.3333 13.3333V9.99998C23.3333 6.85728 23.3333 5.28593 24.3096 4.30963C25.286 3.33331 26.8573 3.33331 30 3.33331Z" stroke="#65CB7B" stroke-width="2.5" stroke-linecap="round"/>
<path d="M30 15H30.015" stroke="#65CB7B" stroke-width="2.5" stroke-linecap="round" stroke-linejoin="round"/>
<path d="M5.82935 26.6923L6.6992 25H33.253L34.1705 26.6923C36.5753 31.1283 37.1743 33.3462 36.2601 35.0065C35.3461 36.6667 32.9226 36.6667 28.0756 36.6667H11.9243C7.07735 36.6667 4.65383 36.6667 3.73976 35.0065C2.8257 33.3462 3.42455 31.1283 5.82935 26.6923Z" stroke="#65CB7B" stroke-width="2.5" stroke-linecap="round" stroke-linejoin="round"/>
</svg>
