<svg width="25" height="24" viewBox="0 0 25 24" fill="none" xmlns="http://www.w3.org/2000/svg">
<path d="M9.82525 5.71223L9.42259 4.80625C9.15931 4.21388 9.02767 3.91768 8.8308 3.69101C8.58407 3.40694 8.26246 3.19794 7.90267 3.08785C7.61558 3 7.29145 3 6.6432 3C5.6949 3 5.22075 3 4.82272 3.18229C4.35386 3.39702 3.93043 3.86328 3.76172 4.3506C3.6185 4.76429 3.65953 5.18943 3.74157 6.0397C4.6149 15.0902 9.57681 20.0521 18.6272 20.9254C19.4775 21.0075 19.9027 21.0485 20.3163 20.9053C20.8037 20.7366 21.27 20.3131 21.4848 19.8443C21.667 19.4462 21.667 18.9721 21.667 18.0238C21.667 17.3755 21.6669 17.0514 21.5791 16.7643C21.469 16.4045 21.2601 16.0829 20.976 15.8362C20.7494 15.6393 20.4532 15.5077 19.8608 15.2444L18.9547 14.8417C18.3132 14.5566 17.9924 14.4141 17.6665 14.3831C17.3545 14.3534 17.04 14.3972 16.748 14.5109C16.4429 14.6297 16.1733 14.8544 15.6339 15.3038C15.0971 15.7512 14.8287 15.9749 14.5007 16.0947C14.2099 16.2009 13.8255 16.2403 13.5193 16.1951C13.1738 16.1442 12.9093 16.0029 12.3802 15.7201C10.7342 14.8405 9.82652 13.9328 8.94686 12.2867C8.66413 11.7577 8.52277 11.4931 8.47186 11.1477C8.42673 10.8414 8.46607 10.457 8.57229 10.1663C8.69211 9.83828 8.9158 9.56986 9.36318 9.033C9.81261 8.49368 10.0373 8.22402 10.1561 7.91891C10.2698 7.62694 10.3136 7.3124 10.2839 7.00048C10.2529 6.67452 10.1104 6.35376 9.82525 5.71223Z" stroke="#D6D6D6" stroke-width="1.5" stroke-linecap="round"/>
</svg>
