<svg width="12" height="12" viewBox="0 0 12 12" fill="none" xmlns="http://www.w3.org/2000/svg">
<path fill-rule="evenodd" clip-rule="evenodd" d="M3.52351 0.0736373C2.54745 0.117707 1.70146 0.356504 1.01834 1.03721C0.33284 1.72149 0.0971709 2.57141 0.0530216 3.53798C0.0255774 4.14127 -0.134902 8.69895 0.330454 9.89421C0.644271 10.7006 1.26234 11.3206 2.07552 11.6356C2.45497 11.7833 2.88812 11.8833 3.52351 11.9125C8.83632 12.1531 10.8057 12.0221 11.6362 9.89421C11.7836 9.51544 11.885 9.08237 11.913 8.44812C12.1559 3.11801 11.8737 1.96268 10.9477 1.03721C10.2133 0.304095 9.34941 -0.194952 3.52351 0.0736373ZM3.57242 10.8405C2.99072 10.8143 2.67512 10.7173 2.46452 10.6357C1.93473 10.4297 1.53679 10.0331 1.33215 9.50603C0.977767 8.59782 1.0953 4.2843 1.12692 3.58632C1.15795 2.90263 1.29636 2.27779 1.77842 1.79541C2.37503 1.19986 3.14584 0.907991 8.39422 1.14502C9.07913 1.17599 9.70498 1.31421 10.1882 1.79541C10.7848 2.39095 11.0808 3.16823 10.8397 8.40007C10.8135 8.98073 10.7162 9.2958 10.6345 9.50603C10.0946 10.8907 8.85242 11.0829 3.57242 10.8405ZM8.4521 2.81376C8.4521 3.20802 8.77249 3.52861 9.16804 3.52861C9.56359 3.52861 9.88457 3.20802 9.88457 2.81376C9.88457 2.41952 9.56359 2.09922 9.16804 2.09922C8.77249 2.09922 8.4521 2.41952 8.4521 2.81376ZM2.91973 5.99276C2.91973 7.68172 4.29134 9.05105 5.98333 9.05105C7.67532 9.05105 9.04693 7.68172 9.04693 5.99276C9.04693 4.3038 7.67532 2.93535 5.98333 2.93535C4.29134 2.93535 2.91973 4.3038 2.91973 5.99276ZM3.99482 5.99276C3.99482 4.89696 4.88497 4.0079 5.98333 4.0079C7.08169 4.0079 7.97183 4.89696 7.97183 5.99276C7.97183 7.08915 7.08169 7.97849 5.98333 7.97849C4.88497 7.97849 3.99482 7.08915 3.99482 5.99276Z" fill="white"/>
</svg>
