<svg width="10" height="10" viewBox="0 0 10 10" fill="none" xmlns="http://www.w3.org/2000/svg">
<path fill-rule="evenodd" clip-rule="evenodd" d="M9.99646 10H7.99788V6.50049C7.99788 5.54049 7.57468 5.00488 6.81571 5.00488C5.9898 5.00488 5.49965 5.56299 5.49965 6.50049V10H3.50106V3.5H5.49965V4.23096C5.49965 4.23096 6.1267 3.12988 7.5397 3.12988C8.9532 3.12988 9.99646 3.99305 9.99646 5.77905V10ZM1.22368 2.46045C0.549654 2.46045 0.00354004 1.90948 0.00354004 1.22998C0.00354004 0.55098 0.549654 0 1.22368 0C1.8972 0 2.44331 0.55098 2.44331 1.22998C2.44381 1.90948 1.8972 2.46045 1.22368 2.46045ZM0.00354004 10H2.50177V3.5H0.00354004V10Z" fill="white"/>
</svg>
