<svg width="25" height="24" viewBox="0 0 25 24" fill="none" xmlns="http://www.w3.org/2000/svg">
<path d="M14.2844 21.367C13.8508 21.773 13.2711 22 12.6678 22C12.0645 22 11.4849 21.773 11.0512 21.367C7.07977 17.626 1.75751 13.4469 4.35302 7.37966C5.75638 4.09916 9.12509 2 12.6678 2C16.2106 2 19.5793 4.09916 20.9827 7.37966C23.5749 13.4393 18.2657 17.6389 14.2844 21.367Z" stroke="#D6D6D6" stroke-width="1.5"/>
<path d="M16.1667 11C16.1667 12.933 14.5997 14.5 12.6667 14.5C10.7337 14.5 9.16675 12.933 9.16675 11C9.16675 9.067 10.7337 7.5 12.6667 7.5C14.5997 7.5 16.1667 9.067 16.1667 11Z" stroke="#D6D6D6" stroke-width="1.5"/>
</svg>
