<svg width="25" height="24" viewBox="0 0 25 24" fill="none" xmlns="http://www.w3.org/2000/svg">
<path d="M2.66675 6L9.57977 9.91697C12.1283 11.361 13.2051 11.361 15.7537 9.91697L22.6667 6" stroke="#D6D6D6" stroke-width="1.5" stroke-linejoin="round"/>
<path d="M2.68252 13.4756C2.74789 16.5412 2.78058 18.0739 3.91171 19.2094C5.04283 20.3448 6.61708 20.3843 9.76558 20.4634C11.706 20.5122 13.6274 20.5122 15.5679 20.4634C18.7164 20.3843 20.2906 20.3448 21.4218 19.2094C22.5529 18.0739 22.5856 16.5412 22.6509 13.4756C22.672 12.4899 22.672 11.5101 22.6509 10.5244C22.5856 7.45886 22.5529 5.92609 21.4218 4.79066C20.2906 3.65523 18.7164 3.61568 15.5679 3.53657C13.6274 3.48781 11.706 3.48781 9.76557 3.53656C6.61708 3.61566 5.04283 3.65521 3.9117 4.79065C2.78057 5.92608 2.74789 7.45885 2.68251 10.5244C2.66149 11.5101 2.6615 12.4899 2.68252 13.4756Z" stroke="#D6D6D6" stroke-width="1.5" stroke-linejoin="round"/>
</svg>
