<svg width="41" height="40" viewBox="0 0 41 40" fill="none" xmlns="http://www.w3.org/2000/svg">
<path d="M20.5 36.6666C11.2953 36.6666 3.83344 29.2046 3.83344 20C3.83344 10.7952 11.2954 3.33331 20.5 3.33331C27.9629 3.33331 34.2095 8.23813 36.3334 15H32.1667" stroke="#FCA61F" stroke-width="2.5" stroke-linecap="round" stroke-linejoin="round"/>
<path d="M20.5 13.3333V20L23.8333 23.3333" stroke="#FCA61F" stroke-width="2.5" stroke-linecap="round" stroke-linejoin="round"/>
<path d="M37.0918 21.6667C37.1413 21.1182 37.1667 20.5622 37.1667 20M25.5 36.6667C26.0693 36.4793 26.6255 36.2607 27.1667 36.013M35.151 28.3333C35.4725 27.714 35.7592 27.0722 36.0083 26.4103M30.8208 33.7153C31.3948 33.2402 31.9385 32.7263 32.448 32.1775" stroke="#FCA61F" stroke-width="2.5" stroke-linecap="round" stroke-linejoin="round"/>
</svg>
