<svg width="40" height="40" viewBox="0 0 40 40" fill="none" xmlns="http://www.w3.org/2000/svg">
<path d="M15 21.6667C15 21.6667 16.6667 21.6667 18.3333 25C18.3333 25 23.6275 16.6667 28.3333 15" stroke="#7456F1" stroke-width="2.5" stroke-linecap="round" stroke-linejoin="round"/>
<path d="M35 18.6388V13.8005C35 11.0671 35 9.70045 34.3265 8.8088C33.653 7.91713 32.1302 7.48425 29.0845 6.61848C27.0037 6.02698 25.1693 5.31436 23.7038 4.6638C21.7057 3.77681 20.7067 3.33331 20 3.33331C19.2933 3.33331 18.2943 3.77681 16.2962 4.6638C14.8306 5.31436 12.9964 6.02696 10.9156 6.61848C7.86988 7.48425 6.34703 7.91713 5.67352 8.8088C5 9.70045 5 11.0671 5 13.8005V18.6388C5 28.0141 13.4379 33.6391 17.6567 35.8656C18.6685 36.3996 19.1743 36.6666 20 36.6666C20.8257 36.6666 21.3315 36.3996 22.3433 35.8656C26.562 33.6391 35 28.0141 35 18.6388Z" stroke="#7456F1" stroke-width="2.5" stroke-linecap="round"/>
</svg>
