<svg width="12" height="10" viewBox="0 0 12 10" fill="none" xmlns="http://www.w3.org/2000/svg">
<path fill-rule="evenodd" clip-rule="evenodd" d="M3.77554 10C8.30061 10 10.7757 6.15218 10.7757 2.81576C10.7757 2.70623 10.7757 2.59752 10.7685 2.48922C11.25 2.13232 11.6655 1.68918 11.9958 1.18214C11.5474 1.38643 11.0707 1.52041 10.5832 1.57948C11.0965 1.26381 11.4808 0.767869 11.6649 0.182674C11.1816 0.476809 10.6534 0.684398 10.1024 0.79578C9.1706 -0.220776 7.61228 -0.270029 6.62117 0.686221C5.98261 1.3028 5.711 2.2221 5.90946 3.09897C3.93143 2.99683 2.08831 2.03813 0.838773 0.460998C0.185825 1.61477 0.519794 3.09022 1.60085 3.8311C1.20932 3.8194 0.826181 3.71122 0.483818 3.51554V3.54759C0.484418 4.74936 1.31005 5.78415 2.45765 6.02229C2.0955 6.12382 1.71537 6.13854 1.34722 6.06532C1.6692 7.09418 2.59316 7.79888 3.64543 7.81919C2.77423 8.52191 1.69798 8.90349 0.589945 8.90227C0.39448 8.90165 0.199015 8.88995 0.00415039 8.86595C1.12957 9.60683 2.43847 10 3.77554 9.99817" fill="white"/>
</svg>
